<svg width="15" height="8" viewBox="0 0 15 8" fill="none" xmlns="http://www.w3.org/2000/svg">
<path d="M7.59637 6.46867L13.8848 0.514928C13.9458 0.456749 14.0186 0.410776 14.0987 0.379733C14.1788 0.348689 14.2647 0.333206 14.3513 0.334201C14.4378 0.335195 14.5233 0.352648 14.6026 0.385523C14.6819 0.418399 14.7534 0.46603 14.813 0.525595C14.935 0.64743 15.0021 0.809561 15 0.977535C14.9979 1.14551 14.9267 1.30609 14.8017 1.42515L8.04829 7.81888C7.98769 7.87673 7.91554 7.92253 7.83605 7.95363C7.75656 7.98472 7.67133 8.00048 7.58534 7.99999C7.49936 7.99949 7.41434 7.98275 7.33525 7.95074C7.25617 7.91873 7.18461 7.87209 7.12476 7.81355L0.191291 1.08381C0.0685815 0.963338 0 0.802403 0 0.634928C0 0.467452 0.0685815 0.306517 0.191291 0.186041C0.251589 0.127175 0.323734 0.0803779 0.403453 0.0484218C0.483172 0.0164657 0.568845 0 0.655397 0C0.74195 0 0.827622 0.0164657 0.907341 0.0484218C0.98706 0.0803779 1.05921 0.127175 1.1195 0.186041L7.59637 6.46867Z" fill="white" fill-opacity="0.7"/>
</svg>
