<svg width="79" height="72" viewBox="0 0 79 72" fill="none" xmlns="http://www.w3.org/2000/svg">
<path d="M73.4376 0H4.68759C3.44439 0 2.2521 0.49386 1.37303 1.37294C0.49395 2.25201 8.96351e-05 3.4443 8.96351e-05 4.6875V67.1875C-0.00546213 68.0813 0.246991 68.9577 0.727158 69.7115C1.20732 70.4654 1.89481 71.0647 2.70712 71.4375C3.32812 71.7241 4.00365 71.8733 4.68759 71.875C5.78825 71.8741 6.85281 71.4823 7.69149 70.7695L7.71493 70.7461L20.2696 59.7422C20.5548 59.5021 20.9164 59.3719 21.2892 59.375H73.4376C74.6808 59.375 75.8731 58.8811 76.7522 58.0021C77.6312 57.123 78.1251 55.9307 78.1251 54.6875V4.6875C78.1251 3.4443 77.6312 2.25201 76.7522 1.37294C75.8731 0.49386 74.6808 0 73.4376 0ZM75.0001 54.6875C75.0001 55.1019 74.8355 55.4993 74.5424 55.7924C74.2494 56.0854 73.852 56.25 73.4376 56.25H21.2892C20.1744 56.2532 19.0966 56.6502 18.2462 57.3711L5.68368 68.3867C5.45553 68.5755 5.17844 68.6956 4.88468 68.7329C4.59092 68.7703 4.29259 68.7234 4.02446 68.5977C3.75633 68.472 3.52943 68.2727 3.3702 68.0231C3.21097 67.7734 3.12596 67.4836 3.12509 67.1875V4.6875C3.12509 4.2731 3.28971 3.87567 3.58274 3.58265C3.87576 3.28962 4.27319 3.125 4.68759 3.125H73.4376C73.852 3.125 74.2494 3.28962 74.5424 3.58265C74.8355 3.87567 75.0001 4.2731 75.0001 4.6875V54.6875ZM53.1251 23.4375C53.1251 23.8519 52.9605 24.2493 52.6674 24.5424C52.3744 24.8354 51.977 25 51.5626 25H26.5626C26.1482 25 25.7508 24.8354 25.4577 24.5424C25.1647 24.2493 25.0001 23.8519 25.0001 23.4375C25.0001 23.0231 25.1647 22.6257 25.4577 22.3326C25.7508 22.0396 26.1482 21.875 26.5626 21.875H51.5626C51.977 21.875 52.3744 22.0396 52.6674 22.3326C52.9605 22.6257 53.1251 23.0231 53.1251 23.4375ZM53.1251 35.9375C53.1251 36.3519 52.9605 36.7493 52.6674 37.0424C52.3744 37.3354 51.977 37.5 51.5626 37.5H26.5626C26.1482 37.5 25.7508 37.3354 25.4577 37.0424C25.1647 36.7493 25.0001 36.3519 25.0001 35.9375C25.0001 35.5231 25.1647 35.1257 25.4577 34.8326C25.7508 34.5396 26.1482 34.375 26.5626 34.375H51.5626C51.977 34.375 52.3744 34.5396 52.6674 34.8326C52.9605 35.1257 53.1251 35.5231 53.1251 35.9375Z" fill="white"/>
</svg>
