<svg width="32" height="32" viewBox="0 0 32 32" fill="none" xmlns="http://www.w3.org/2000/svg">
<g clip-path="url(#clip0_1529_12645)">
<circle cx="16" cy="16" r="16" fill="white"/>
<path d="M22.2566 18.0748C22.8014 17.0513 23.0855 15.9093 23.0837 14.7498C23.0837 10.8378 19.9124 7.6665 16.0003 7.6665C12.0883 7.6665 8.917 10.8378 8.917 14.7498C8.91414 16.4208 9.50479 18.0384 10.5837 19.3144L10.592 19.3248C10.5949 19.3273 10.5974 19.3307 10.5995 19.3332H10.5837L14.787 23.7957C14.9428 23.9611 15.1308 24.0929 15.3394 24.1829C15.5481 24.273 15.7729 24.3195 16.0001 24.3195C16.2274 24.3195 16.4522 24.273 16.6608 24.1829C16.8694 24.0929 17.0574 23.9611 17.2133 23.7957L21.417 19.3332H21.4012L21.4078 19.3253L21.4087 19.3244C21.4387 19.2886 21.4687 19.2528 21.4983 19.2161C21.7873 18.8609 22.0412 18.479 22.2566 18.0748ZM16.0024 17.4578C15.3394 17.4578 14.7035 17.1944 14.2347 16.7255C13.7658 16.2567 13.5024 15.6208 13.5024 14.9578C13.5024 14.2947 13.7658 13.6588 14.2347 13.19C14.7035 12.7211 15.3394 12.4578 16.0024 12.4578C16.6655 12.4578 17.3013 12.7211 17.7702 13.19C18.239 13.6588 18.5024 14.2947 18.5024 14.9578C18.5024 15.6208 18.239 16.2567 17.7702 16.7255C17.3013 17.1944 16.6655 17.4578 16.0024 17.4578Z" fill="#141516"/>
</g>
<defs>
<clipPath id="clip0_1529_12645">
<rect width="32" height="32" fill="white"/>
</clipPath>
</defs>
</svg>
