<svg width="33" height="32" viewBox="0 0 33 32" fill="none" xmlns="http://www.w3.org/2000/svg">
<g clip-path="url(#clip0_1529_12641)">
<circle cx="16.75" cy="16" r="16" fill="white"/>
<path fill-rule="evenodd" clip-rule="evenodd" d="M9.72626 9.37457C10.4235 9.00169 11.1079 8.88916 12.5073 8.88916H20.9912C22.3906 8.88916 23.075 9.00169 23.7722 9.37457C24.3651 9.69163 24.8357 10.1622 25.1527 10.7551C25.5256 11.4523 25.6381 12.1367 25.6381 13.5361V18.4645C25.6381 19.8638 25.5256 20.5482 25.1527 21.2455C24.8357 21.8383 24.3651 22.3089 23.7722 22.626C23.075 22.9989 22.3906 23.1114 20.9912 23.1114H12.5073C11.1079 23.1114 10.4235 22.9989 9.72626 22.626C9.13341 22.3089 8.66282 21.8383 8.34576 21.2455C7.97288 20.5482 7.86035 19.8638 7.86035 18.4645V13.5361C7.86035 12.1367 7.97288 11.4523 8.34576 10.7551C8.66282 10.1622 9.13341 9.69163 9.72626 9.37457ZM12.5073 10.6669C11.1899 10.6669 10.8667 10.7807 10.5647 10.9422C10.3125 11.0771 10.113 11.2638 9.96538 11.5031L10.311 11.8226C10.6306 12.1181 11.0752 12.5293 11.5754 12.9925C12.5755 13.9185 13.7988 15.0528 14.6891 15.8838C15.4747 16.617 16.1573 16.8892 16.7492 16.8892C17.3412 16.8892 18.0238 16.617 18.8094 15.8838C19.6997 15.0528 20.923 13.9185 21.9231 12.9925C22.4233 12.5293 22.8679 12.1181 23.1874 11.8226L23.5331 11.5031C23.3855 11.2638 23.1859 11.0771 22.9338 10.9422C22.6318 10.7807 22.3086 10.6669 20.9912 10.6669H12.5073ZM23.8604 13.6218C23.6391 13.8266 23.3926 14.0547 23.1309 14.2969C22.131 15.2228 20.9099 16.3551 20.0224 17.1834C19.0303 18.1094 17.9351 18.6669 16.7492 18.6669C15.5634 18.6669 14.4682 18.1094 13.4761 17.1834C12.5886 16.3551 11.3675 15.2228 10.3675 14.2969C10.1059 14.0547 9.85941 13.8266 9.63813 13.6218V18.4645C9.63813 19.7819 9.75192 20.1051 9.91343 20.4071C10.0648 20.6901 10.2816 20.9069 10.5647 21.0583C10.8667 21.2198 11.1899 21.3336 12.5073 21.3336H20.9912C22.3086 21.3336 22.6318 21.2198 22.9338 21.0583C23.2169 20.9069 23.4337 20.6901 23.5851 20.4071C23.7466 20.1051 23.8604 19.7819 23.8604 18.4645V13.6218Z" fill="#1A1A1B"/>
</g>
<defs>
<clipPath id="clip0_1529_12641">
<rect width="32" height="32" fill="white" transform="translate(0.75)"/>
</clipPath>
</defs>
</svg>
