<svg width="32" height="32" viewBox="0 0 32 32" fill="none" xmlns="http://www.w3.org/2000/svg">
<g clip-path="url(#clip0_1529_12640)">
<circle cx="16" cy="16" r="16" fill="white"/>
<path d="M16.8937 7.90209C16.948 7.41417 17.3875 7.06261 17.8754 7.11685C21.5606 7.5265 24.4689 10.4367 24.8827 14.1234C24.9375 14.6112 24.5864 15.0511 24.0986 15.1059C23.6107 15.1606 23.1708 14.8095 23.1161 14.3217C22.7947 11.4588 20.5368 9.20143 17.679 8.88374C17.1911 8.8295 16.8395 8.39 16.8937 7.90209Z" fill="#1A1A1B"/>
<path fill-rule="evenodd" clip-rule="evenodd" d="M9.8134 8.3186C10.1523 8.14211 10.5875 7.98053 11.0571 8.00226C11.0687 8.0028 11.0802 8.00356 11.0918 8.00455C11.6071 8.04868 12.0635 8.31928 12.4059 8.58324C12.7674 8.86187 13.1073 9.21576 13.4003 9.5749C13.6953 9.93656 13.9608 10.3257 14.1681 10.6909C14.3655 11.0386 14.5461 11.4268 14.6186 11.7763C14.783 12.567 14.4084 13.2037 14.2188 13.5257C14.2035 13.5517 14.1894 13.5757 14.1769 13.5975C13.9894 13.9246 13.9871 13.9938 14.001 14.037C14.7739 15.9187 16.0814 17.2258 17.9641 17.9976C18.0069 18.0115 18.0758 18.0095 18.4026 17.8223C18.4243 17.8098 18.4482 17.7958 18.4741 17.7806C18.7961 17.5912 19.433 17.2167 20.2232 17.3806L20.2246 17.3809C20.5728 17.4537 20.9605 17.6341 21.3085 17.8316C21.6736 18.0387 22.063 18.3039 22.425 18.5988C22.7844 18.8915 23.1388 19.2313 23.4177 19.5929C23.6818 19.9354 23.9529 20.3927 23.9957 20.9096C23.9969 20.9236 23.9977 20.9376 23.9982 20.9516C24.0153 21.4346 23.8443 21.8802 23.6583 22.2273C23.4663 22.5857 23.2145 22.9196 22.9699 23.2017C22.723 23.4866 22.466 23.7386 22.2476 23.9334C22.0653 24.0959 21.8689 24.2554 21.7113 24.3536C20.6167 25.1184 19.2945 25.002 17.9831 24.3964C16.1863 23.644 13.9636 21.9253 12.0425 20.0169C10.1216 18.1087 8.3664 15.8761 7.59971 14.0106C7.01945 12.7272 6.8601 11.3872 7.65083 10.2808C7.8571 9.95682 8.32669 9.42656 8.85152 8.98177C9.13331 8.74295 9.46277 8.50118 9.8134 8.3186ZM9.15033 11.2358C9.13659 11.2586 9.12183 11.2808 9.10609 11.3022C8.84104 11.664 8.75126 12.2489 9.22508 13.2902C9.22991 13.3008 9.23452 13.3115 9.23893 13.3223C9.86762 14.8618 11.4282 16.9008 13.2954 18.7556C15.1618 20.6098 17.198 22.1443 18.6827 22.762C18.6939 22.7667 18.705 22.7716 18.716 22.7767C19.7412 23.2533 20.3312 23.1557 20.7062 22.887C20.7306 22.8695 20.7559 22.8533 20.782 22.8384C20.7816 22.8386 20.7817 22.8386 20.782 22.8384L20.787 22.8345C20.81 22.8177 20.9067 22.7471 21.0645 22.6064C21.2348 22.4545 21.4367 22.2564 21.6266 22.0373C21.819 21.8153 21.9822 21.5913 22.0913 21.3876C22.1871 21.2088 22.2146 21.0953 22.2203 21.0404C22.2159 21.0242 22.2063 20.9956 22.1863 20.9537C22.1515 20.8812 22.0947 20.7886 22.0099 20.6786C21.8389 20.4569 21.592 20.2131 21.3023 19.9772C21.0151 19.7433 20.7075 19.5346 20.4311 19.3777C20.1384 19.2117 19.9405 19.1379 19.8615 19.1212C19.7864 19.1058 19.7271 19.1124 19.2862 19.3649L19.2705 19.3739C18.9106 19.5803 18.2142 19.9796 17.338 19.6615C17.327 19.6575 17.3162 19.6534 17.3054 19.649C14.9686 18.6954 13.3041 17.031 12.3496 14.6954C12.345 14.6843 12.3407 14.673 12.3365 14.6616C12.0195 13.7853 12.419 13.0891 12.6254 12.7293L12.6347 12.7133C12.8882 12.2709 12.8936 12.2131 12.878 12.1383L12.8778 12.1372C12.8617 12.0592 12.7885 11.8617 12.6221 11.5686C12.4654 11.2926 12.2567 10.9855 12.0227 10.6987C11.7867 10.4093 11.5427 10.1625 11.3205 9.99124C11.2104 9.90634 11.1175 9.84925 11.0445 9.81422C11.0002 9.79296 10.9705 9.78331 10.9544 9.77905C10.9096 9.7836 10.8056 9.80631 10.6345 9.89541C10.4392 9.99709 10.2209 10.1516 10.0009 10.338C9.78381 10.522 9.58401 10.721 9.42599 10.8957C9.34734 10.9827 9.28204 11.0604 9.23229 11.1237C9.20749 11.1552 9.1879 11.1814 9.17323 11.202C9.16597 11.2122 9.16041 11.2203 9.15637 11.2264L9.15184 11.2334L9.15033 11.2358Z" fill="#1A1A1B"/>
<path d="M17.9472 10.6834C17.4654 10.5895 16.9986 10.9039 16.9047 11.3858C16.8108 11.8676 17.1253 12.3344 17.6071 12.4283C18.8251 12.6657 19.7766 13.6172 20.014 14.8352C20.108 15.3171 20.5747 15.6316 21.0566 15.5377C21.5384 15.4437 21.8529 14.977 21.759 14.4951C21.3831 12.5665 19.8759 11.0593 17.9472 10.6834Z" fill="#1A1A1B"/>
</g>
<defs>
<clipPath id="clip0_1529_12640">
<rect width="32" height="32" fill="white"/>
</clipPath>
</defs>
</svg>
