<svg width="24" height="24" viewBox="0 0 24 24" fill="none" xmlns="http://www.w3.org/2000/svg">
<path d="M9.99676 13.4237L16.2852 7.14373C16.3462 7.08236 16.419 7.03387 16.4991 7.00113C16.5792 6.96838 16.6651 6.95205 16.7517 6.9531C16.8382 6.95415 16.9237 6.97256 17.003 7.00723C17.0823 7.04191 17.1538 7.09215 17.2134 7.15498C17.3354 7.28349 17.4024 7.45451 17.4003 7.63168C17.3982 7.80886 17.3271 7.97824 17.2021 8.10382L10.4487 14.8479C10.3881 14.9089 10.3159 14.9572 10.2364 14.99C10.157 15.0228 10.0717 15.0394 9.98574 15.0389C9.89975 15.0384 9.81473 15.0207 9.73564 14.987C9.65656 14.9532 9.585 14.904 9.52515 14.8423L2.59168 7.74379C2.46897 7.61671 2.40039 7.44696 2.40039 7.2703C2.40039 7.09365 2.46897 6.9239 2.59168 6.79682C2.65198 6.73473 2.72412 6.68537 2.80384 6.65166C2.88356 6.61795 2.96924 6.60059 3.05579 6.60059C3.14234 6.60059 3.22801 6.61795 3.30773 6.65166C3.38745 6.68537 3.4596 6.73473 3.51989 6.79682L9.99676 13.4237Z" fill="white"/>
</svg>
