<svg width="944" height="292" viewBox="0 0 944 292" fill="none" xmlns="http://www.w3.org/2000/svg">
<path d="M63.1693 0.415039C69.6697 0.415039 74.2929 1.70875 77.038 4.29622C79.7834 6.88368 81.1561 10.7966 81.1561 16.0347V20.5788C81.1561 25.8804 79.1364 29.8878 75.0976 32.6015C79.452 35.1258 81.6293 39.1968 81.6293 44.8136V50.3041C81.6293 52.8288 81.3455 55.1007 80.7774 57.1201C80.2093 59.1398 79.2784 60.8595 77.9847 62.2795C76.691 63.6995 74.9713 64.7883 72.8253 65.5454C70.6796 66.3028 68.0291 66.6815 64.8736 66.6815H8.64136C6.7482 66.6815 5.8014 65.7347 5.8014 63.8416V3.255C5.8014 1.36146 6.7482 0.415039 8.64136 0.415039H63.1693ZM20.2853 38.2814V52.3869C20.2853 53.2071 20.6958 53.6176 21.5163 53.6176H60.3294C62.8538 53.6176 64.6524 53.1599 65.7254 52.2448C66.7984 51.3298 67.3348 49.8622 67.3348 47.8428V44.2455C67.3348 42.2892 66.7508 40.8061 65.5833 39.7962C64.4158 38.7864 62.2543 38.2814 59.0988 38.2814H20.2853ZM20.2853 27.9628H59.0988C62.2543 27.9628 64.4 27.4897 65.5361 26.5429C66.6722 25.5962 67.2399 24.2079 67.2399 22.3775V19.1588C67.2399 17.2026 66.6877 15.7668 65.5833 14.8517C64.479 13.9363 62.6962 13.479 60.2349 13.479H21.5163C20.6958 13.479 20.2853 13.8891 20.2853 14.7096V27.9628ZM147.801 0.415039C152.598 0.415039 156.684 0.872383 160.061 1.78741C163.437 2.70281 166.183 4.1541 168.297 6.14213C170.411 8.13016 171.941 10.7022 172.888 13.8577C173.835 17.0132 174.308 20.863 174.308 25.4068V41.6894C174.308 46.2335 173.835 50.0992 172.888 53.2861C171.941 56.4734 170.411 59.0608 168.297 61.0488C166.183 63.0369 163.437 64.4728 160.061 65.356C156.684 66.2397 152.598 66.6815 147.801 66.6815H118.55C113.753 66.6815 109.682 66.2397 106.338 65.356C102.993 64.4728 100.263 63.0369 98.1488 61.0488C96.0346 59.0608 94.4884 56.4734 93.5103 53.2861C92.5318 50.0992 92.0427 46.2335 92.0427 41.6894V25.4068C92.0427 20.863 92.5318 17.0132 93.5103 13.8577C94.4884 10.7022 96.0346 8.13016 98.1488 6.14213C100.263 4.1541 102.993 2.70281 106.338 1.78741C109.682 0.872383 113.753 0.415039 118.55 0.415039H147.801ZM106.527 40.6481C106.527 43.1093 106.732 45.1764 107.142 46.8488C107.552 48.5213 108.231 49.8467 109.178 50.8249C110.124 51.803 111.402 52.4973 113.011 52.9074C114.621 53.3178 116.656 53.5227 119.117 53.5227H147.234C149.695 53.5227 151.73 53.3178 153.339 52.9074C154.949 52.4973 156.227 51.803 157.173 50.8249C158.12 49.8467 158.799 48.5213 159.209 46.8488C159.619 45.1764 159.824 43.1093 159.824 40.6481V26.448C159.824 23.9868 159.619 21.9198 159.209 20.2474C158.799 18.5749 158.12 17.2498 157.173 16.2716C156.227 15.2931 154.949 14.5992 153.339 14.1888C151.73 13.7787 149.695 13.5735 147.234 13.5735H119.117C116.656 13.5735 114.621 13.7787 113.011 14.1888C111.402 14.5992 110.124 15.2931 109.178 16.2716C108.231 17.2498 107.552 18.5749 107.142 20.2474C106.732 21.9198 106.527 23.9868 106.527 26.448V40.6481ZM247.201 0.415039C250.357 0.415039 252.597 1.06171 253.923 2.35544C255.248 3.64917 255.911 5.68485 255.911 8.46167V64.5989C255.911 65.9872 255.216 66.6815 253.828 66.6815H243.509C242.121 66.6815 241.427 65.9872 241.427 64.5989V15.8457C241.427 14.5833 240.764 13.9522 239.439 13.9522H217.097C215.961 13.9522 215.251 14.2519 214.967 14.8517C214.683 15.4512 214.478 16.1296 214.352 16.887C214.036 20.0425 213.674 23.3402 213.263 26.7795C212.853 30.2193 212.364 33.6273 211.796 37.0035C211.228 40.3802 210.612 43.5988 209.95 46.6595C209.287 49.7205 208.546 52.4815 207.725 54.9427C206.463 58.8556 204.696 61.7904 202.424 63.7467C200.152 65.7034 196.902 66.6815 192.673 66.6815H183.017C181.566 66.6815 180.84 65.9872 180.84 64.5989V55.3214C180.84 53.9332 181.566 53.2389 183.017 53.2389H190.212C191.6 53.2389 192.91 52.7498 194.141 51.7717C195.371 50.7931 196.491 48.7896 197.501 45.7603C198.069 43.993 198.59 41.9736 199.063 39.7013C199.537 37.4294 199.994 34.8103 200.436 31.8441C200.878 28.8779 201.335 25.5017 201.808 21.715C202.282 17.9283 202.802 13.5735 203.371 8.65101C203.623 6.12629 204.317 4.12273 205.453 2.63965C206.589 1.15656 208.672 0.415039 211.701 0.415039H247.201ZM323.502 0.415039C328.299 0.415039 332.385 0.872383 335.762 1.78741C339.138 2.70281 341.884 4.1541 343.998 6.14213C346.112 8.13016 347.643 10.7022 348.589 13.8577C349.536 17.0132 350.009 20.863 350.009 25.4068V41.6894C350.009 46.2335 349.536 50.0992 348.589 53.2861C347.643 56.4734 346.112 59.0608 343.998 61.0488C341.884 63.0369 339.138 64.4728 335.762 65.356C332.385 66.2397 328.299 66.6815 323.502 66.6815H294.251C289.454 66.6815 285.384 66.2397 282.039 65.356C278.694 64.4728 275.964 63.0369 273.85 61.0488C271.736 59.0608 270.19 56.4734 269.211 53.2861C268.233 50.0992 267.744 46.2335 267.744 41.6894V25.4068C267.744 20.863 268.233 17.0132 269.211 13.8577C270.19 10.7022 271.736 8.13016 273.85 6.14213C275.964 4.1541 278.694 2.70281 282.039 1.78741C285.384 0.872383 289.454 0.415039 294.251 0.415039H323.502ZM282.228 40.6481C282.228 43.1093 282.433 45.1764 282.843 46.8488C283.254 48.5213 283.932 49.8467 284.879 50.8249C285.825 51.803 287.103 52.4973 288.713 52.9074C290.322 53.3178 292.357 53.5227 294.818 53.5227H322.935C325.396 53.5227 327.431 53.3178 329.041 52.9074C330.65 52.4973 331.928 51.803 332.875 50.8249C333.821 49.8467 334.5 48.5213 334.91 46.8488C335.32 45.1764 335.525 43.1093 335.525 40.6481V26.448C335.525 23.9868 335.32 21.9198 334.91 20.2474C334.5 18.5749 333.821 17.2498 332.875 16.2716C331.928 15.2931 330.65 14.5992 329.041 14.1888C327.431 13.7787 325.396 13.5735 322.935 13.5735H294.818C292.357 13.5735 290.322 13.7787 288.713 14.1888C287.103 14.5992 285.825 15.2931 284.879 16.2716C283.932 17.2498 283.254 18.5749 282.843 20.2474C282.433 21.9198 282.228 23.9868 282.228 26.448V40.6481ZM426.973 0.415039C428.362 0.415039 429.056 1.10895 429.056 2.49754V11.7748C429.056 13.2265 428.362 13.9522 426.973 13.9522H388.633C386.172 13.9522 384.137 14.1574 382.527 14.5675C380.918 14.9779 379.64 15.6719 378.693 16.6504C377.747 17.6285 377.068 18.9381 376.658 20.5788C376.248 22.2199 376.042 24.3024 376.042 26.8268V64.5989C376.042 65.9872 375.348 66.6815 373.96 66.6815H363.736C362.284 66.6815 361.559 65.9872 361.559 64.5989V25.4068C361.559 20.863 362.048 17.0132 363.026 13.8577C364.004 10.7022 365.55 8.13016 367.665 6.14213C369.779 4.1541 372.508 2.70281 375.853 1.78741C379.198 0.872383 383.269 0.415039 388.065 0.415039H426.973ZM490.684 0.415039C495.48 0.415039 499.567 0.872383 502.943 1.78741C506.32 2.70281 509.065 4.1541 511.179 6.14213C513.293 8.13016 514.824 10.7022 515.77 13.8577C516.717 17.0132 517.191 20.863 517.191 25.4068V41.6894C517.191 46.2335 516.717 50.0992 515.77 53.2861C514.824 56.4734 513.293 59.0608 511.179 61.0488C509.065 63.0369 506.32 64.4728 502.943 65.356C499.567 66.2397 495.48 66.6815 490.684 66.6815H461.432C456.636 66.6815 452.565 66.2397 449.22 65.356C445.875 64.4728 443.146 63.0369 441.031 61.0488C438.917 59.0608 437.371 56.4734 436.393 53.2861C435.414 50.0992 434.925 46.2335 434.925 41.6894V25.4068C434.925 20.863 435.414 17.0132 436.393 13.8577C437.371 10.7022 438.917 8.13016 441.031 6.14213C443.146 4.1541 445.875 2.70281 449.22 1.78741C452.565 0.872383 456.636 0.415039 461.432 0.415039H490.684ZM449.41 40.6481C449.41 43.1093 449.614 45.1764 450.025 46.8488C450.435 48.5213 451.113 49.8467 452.06 50.8249C453.007 51.803 454.285 52.4973 455.894 52.9074C457.503 53.3178 459.539 53.5227 462 53.5227H490.116C492.577 53.5227 494.613 53.3178 496.222 52.9074C497.831 52.4973 499.109 51.803 500.056 50.8249C501.003 49.8467 501.681 48.5213 502.091 46.8488C502.502 45.1764 502.706 43.1093 502.706 40.6481V26.448C502.706 23.9868 502.502 21.9198 502.091 20.2474C501.681 18.5749 501.003 17.2498 500.056 16.2716C499.109 15.2931 497.831 14.5992 496.222 14.1888C494.613 13.7787 492.577 13.5735 490.116 13.5735H462C459.539 13.5735 457.503 13.7787 455.894 14.1888C454.285 14.5992 453.007 15.2931 452.06 16.2716C451.113 17.2498 450.435 18.5749 450.025 20.2474C449.614 21.9198 449.41 23.9868 449.41 26.448V40.6481ZM595.48 0.415039C598.635 0.415039 600.876 1.06171 602.201 2.35544C603.526 3.64917 604.189 5.68485 604.189 8.46167V53.2389H617.916C619.304 53.2389 619.998 53.9332 619.998 55.3214V82.3015C619.998 83.6898 619.304 84.384 617.916 84.384H609.206C607.755 84.384 607.029 83.6898 607.029 82.3015V66.6815H536.692V82.3015C536.692 83.6898 535.998 84.384 534.609 84.384H525.9C524.448 84.384 523.723 83.6898 523.723 82.3015V55.3214C523.723 53.9332 524.448 53.2389 525.9 53.2389H538.869C540.194 53.2389 541.441 52.7181 542.608 51.6768C543.776 50.6355 544.833 48.6633 545.78 45.7603C546.348 43.993 546.868 41.9736 547.342 39.7013C547.815 37.4294 548.273 34.8103 548.714 31.8441C549.156 28.8779 549.614 25.5017 550.087 21.715C550.561 17.9283 551.081 13.5735 551.649 8.65101C551.902 6.12629 552.596 4.12273 553.732 2.63965C554.868 1.15656 556.951 0.415039 559.98 0.415039H595.48ZM589.705 53.2389V15.8457C589.705 14.5833 589.043 13.9522 587.717 13.9522H565.376C564.24 13.9522 563.53 14.2519 563.246 14.8517C562.962 15.4512 562.757 16.1296 562.631 16.887C562.315 19.8532 561.952 22.9614 561.542 26.2114C561.132 29.4618 560.674 32.6805 560.169 35.8674C559.664 39.0547 559.112 42.1312 558.512 45.0974C557.913 48.0639 557.234 50.7777 556.477 53.2389H589.705ZM695.353 0.415039C696.741 0.415039 697.436 1.10895 697.436 2.49754V11.7748C697.436 13.2265 696.741 13.9522 695.353 13.9522H653.226C650.765 13.9522 648.73 14.1574 647.12 14.5675C645.511 14.9779 644.233 15.6719 643.286 16.6504C642.34 17.6285 641.661 18.9381 641.251 20.5788C640.841 22.2199 640.636 24.3024 640.636 26.8268V40.2694C640.636 42.7941 640.841 44.8925 641.251 46.565C641.661 48.2374 642.34 49.5625 643.286 50.541C644.233 51.5192 645.511 52.2134 647.12 52.6235C648.73 53.0336 650.765 53.2389 653.226 53.2389H695.353C696.741 53.2389 697.436 53.9332 697.436 55.3214V64.5989C697.436 65.9872 696.741 66.6815 695.353 66.6815H652.658C647.862 66.6815 643.791 66.2397 640.446 65.356C637.102 64.4728 634.372 63.0369 632.258 61.0488C630.143 59.0608 628.597 56.4734 627.619 53.2861C626.641 50.0992 626.152 46.2335 626.152 41.6894V25.4068C626.152 20.863 626.641 17.0132 627.619 13.8577C628.597 10.7022 630.143 8.13016 632.258 6.14213C634.372 4.1541 637.102 2.70281 640.446 1.78741C643.791 0.872383 647.862 0.415039 652.658 0.415039H695.353ZM719.966 0.415039C721.355 0.415039 722.049 1.10895 722.049 2.49754V27.679H730.001C731.516 27.679 732.778 27.6314 733.787 27.5369C734.797 27.442 735.681 27.2372 736.438 26.9216C737.196 26.606 737.89 26.1642 738.521 25.5961C739.152 25.0281 739.815 24.3024 740.509 23.4188L756.792 1.64567C757.107 1.20385 757.422 0.888227 757.738 0.698873C758.054 0.509518 758.653 0.415039 759.537 0.415039H771.276C772.096 0.415039 772.585 0.682972 772.743 1.21967C772.901 1.75598 772.822 2.24506 772.506 2.68689L754.141 26.448C753.068 27.8997 752.074 29.1304 751.159 30.1403C750.244 31.1502 749.344 32.0334 748.461 32.7908C750.922 34.3057 753.32 36.5775 755.655 39.6068L775.062 64.2203C775.315 64.5358 775.409 65.0249 775.346 65.6875C775.283 66.35 774.778 66.6815 773.832 66.6815H761.714C760.894 66.6815 760.326 66.587 760.01 66.3976C759.695 66.2083 759.379 65.8927 759.064 65.4509L741.645 42.9203C740.382 41.2793 739.026 40.159 737.574 39.5596C736.123 38.9598 733.945 38.6601 731.042 38.6601H722.049V64.5989C722.049 65.9872 721.355 66.6815 719.966 66.6815H709.742C708.29 66.6815 707.565 65.9872 707.565 64.5989V2.49754C707.565 1.10895 708.29 0.415039 709.742 0.415039H719.966ZM835.175 0.415039C839.972 0.415039 844.058 0.872383 847.435 1.78741C850.811 2.70281 853.557 4.1541 855.671 6.14213C857.785 8.13016 859.315 10.7022 860.262 13.8577C861.209 17.0132 861.682 20.863 861.682 25.4068V41.6894C861.682 46.2335 861.209 50.0992 860.262 53.2861C859.315 56.4734 857.785 59.0608 855.671 61.0488C853.557 63.0369 850.811 64.4728 847.435 65.356C844.058 66.2397 839.972 66.6815 835.175 66.6815H805.924C801.127 66.6815 797.057 66.2397 793.712 65.356C790.367 64.4728 787.637 63.0369 785.523 61.0488C783.409 59.0608 781.862 56.4734 780.884 53.2861C779.906 50.0992 779.417 46.2335 779.417 41.6894V25.4068C779.417 20.863 779.906 17.0132 780.884 13.8577C781.862 10.7022 783.409 8.13016 785.523 6.14213C787.637 4.1541 790.367 2.70281 793.712 1.78741C797.057 0.872383 801.127 0.415039 805.924 0.415039H835.175ZM793.901 40.6481C793.901 43.1093 794.106 45.1764 794.516 46.8488C794.926 48.5213 795.605 49.8467 796.552 50.8249C797.498 51.803 798.776 52.4973 800.385 52.9074C801.995 53.3178 804.03 53.5227 806.491 53.5227H834.608C837.069 53.5227 839.104 53.3178 840.713 52.9074C842.323 52.4973 843.601 51.803 844.547 50.8249C845.494 49.8467 846.173 48.5213 846.583 46.8488C846.993 45.1764 847.198 43.1093 847.198 40.6481V26.448C847.198 23.9868 846.993 21.9198 846.583 20.2474C846.173 18.5749 845.494 17.2498 844.547 16.2716C843.601 15.2931 842.323 14.5992 840.713 14.1888C839.104 13.7787 837.069 13.5735 834.608 13.5735H806.491C804.03 13.5735 801.995 13.7787 800.385 14.1888C798.776 14.5992 797.498 15.2931 796.552 16.2716C795.605 17.2498 794.926 18.5749 794.516 20.2474C794.106 21.9198 793.901 23.9868 793.901 26.448V40.6481ZM941.581 0.415039C942.969 0.415039 943.663 1.10895 943.663 2.49754V11.491C943.663 12.8792 942.969 13.5735 941.581 13.5735H888.851C888.031 13.5735 887.621 14.0153 887.621 14.899V27.3948H941.013C942.464 27.3948 943.19 28.0891 943.19 29.4777V36.9563C943.19 38.3445 942.464 39.0388 941.013 39.0388H887.621V52.1027C887.621 53.0495 888.031 53.5227 888.851 53.5227H941.581C942.969 53.5227 943.663 54.217 943.663 55.6056V64.5989C943.663 65.9872 942.969 66.6815 941.581 66.6815H878.722C876.892 66.6815 875.551 66.3345 874.699 65.6402C873.847 64.9459 873.421 63.7153 873.421 61.948V5.14816C873.421 3.75994 873.847 2.62382 874.699 1.74016C875.551 0.856509 876.892 0.415039 878.722 0.415039H941.581ZM18.2028 112.879C19.5914 112.879 20.2853 113.573 20.2853 114.961V140.143H28.2375C29.7523 140.143 31.0143 140.095 32.0242 140.001C33.034 139.906 33.9173 139.701 34.6747 139.385C35.4321 139.07 36.1265 138.628 36.7573 138.06C37.3885 137.492 38.0514 136.766 38.7453 135.882L55.0283 114.109C55.3435 113.667 55.659 113.352 55.9746 113.162C56.2902 112.973 56.89 112.879 57.7733 112.879H69.5121C70.3327 112.879 70.8217 113.147 70.9794 113.683C71.1373 114.22 71.0584 114.709 70.7428 115.151L52.3773 138.912C51.3047 140.363 50.3106 141.594 49.3956 142.604C48.4802 143.614 47.5811 144.497 46.6974 145.255C49.1587 146.769 51.5571 149.041 53.8921 152.07L73.2989 176.684C73.5514 176.999 73.6458 177.489 73.5827 178.151C73.5196 178.814 73.0146 179.145 72.0683 179.145H59.9507C59.1302 179.145 58.5625 179.051 58.2469 178.861C57.9313 178.672 57.6157 178.356 57.3001 177.914L39.8814 155.384C38.6191 153.743 37.2622 152.623 35.8108 152.023C34.3591 151.423 32.1817 151.124 29.2787 151.124H20.2853V177.063C20.2853 178.451 19.5914 179.145 18.2028 179.145H7.97876C6.52705 179.145 5.8014 178.451 5.8014 177.063V114.961C5.8014 113.573 6.52705 112.879 7.97876 112.879H18.2028ZM123.283 112.879C125.681 112.879 127.7 113.368 129.341 114.346C130.982 115.324 132.591 117.233 134.169 120.073L165.504 176.968C165.819 177.599 165.898 178.12 165.74 178.53C165.583 178.94 165.125 179.145 164.368 179.145H152.345C151.272 179.145 150.547 178.735 150.168 177.914L143.446 165.702H98.9532L92.4214 177.914C91.9796 178.735 91.2539 179.145 90.244 179.145H77.9374C77.1169 179.145 76.6278 178.94 76.4699 178.53C76.3122 178.12 76.3912 177.599 76.7064 176.968L107.757 120.073C109.335 117.233 110.881 115.324 112.396 114.346C113.911 113.368 115.678 112.879 117.697 112.879H123.283ZM104.917 154.721H137.483L122.43 126.984C122.178 126.542 121.831 126.321 121.389 126.321H120.821C120.38 126.321 120.032 126.542 119.78 126.984L104.917 154.721ZM227.227 112.879C234.484 112.879 239.691 114.519 242.847 117.801C246.002 121.083 247.58 125.943 247.58 132.38V139.385C247.58 145.823 246.002 150.682 242.847 153.964C239.691 157.245 234.484 158.886 227.227 158.886H188.034V177.063C188.034 178.451 187.34 179.145 185.952 179.145H175.728C174.276 179.145 173.55 178.451 173.55 177.063V115.719C173.55 113.825 174.497 112.879 176.39 112.879H227.227ZM188.034 146.391H224.292C227.51 146.391 229.783 145.696 231.108 144.308C232.433 142.919 233.096 140.805 233.096 137.965V134.368C233.096 131.528 232.433 129.414 231.108 128.025C229.783 126.637 227.51 125.943 224.292 125.943H189.265C188.445 125.943 188.034 126.321 188.034 127.078V146.391ZM269.353 112.879C270.742 112.879 271.436 113.573 271.436 114.961V133.421H310.628C317.886 133.421 323.092 135.062 326.248 138.344C329.403 141.626 330.981 146.485 330.981 152.922V159.644C330.981 166.081 329.403 170.941 326.248 174.222C323.092 177.504 317.886 179.145 310.628 179.145H259.792C257.899 179.145 256.952 178.198 256.952 176.305V114.961C256.952 113.573 257.677 112.879 259.129 112.879H269.353ZM271.436 145.917V164.945C271.436 165.702 271.846 166.081 272.667 166.081H307.693C310.912 166.081 313.184 165.387 314.509 163.998C315.835 162.61 316.497 160.496 316.497 157.656V154.342C316.497 151.502 315.835 149.388 314.509 148C313.184 146.611 310.912 145.917 307.693 145.917H271.436ZM408.513 112.879C409.902 112.879 410.596 113.573 410.596 114.961V123.955C410.596 125.343 409.902 126.037 408.513 126.037H355.784C354.963 126.037 354.553 126.479 354.553 127.363V139.858H407.945C409.397 139.858 410.122 140.553 410.122 141.941V149.42C410.122 150.808 409.397 151.502 407.945 151.502H354.553V164.566C354.553 165.513 354.963 165.986 355.784 165.986H408.513C409.902 165.986 410.596 166.681 410.596 168.069V177.063C410.596 178.451 409.902 179.145 408.513 179.145H345.655C343.824 179.145 342.483 178.798 341.631 178.104C340.779 177.41 340.353 176.179 340.353 174.412V117.612C340.353 116.224 340.779 115.087 341.631 114.204C342.483 113.32 343.824 112.879 345.655 112.879H408.513ZM475.253 112.879C482.511 112.879 487.718 114.519 490.873 117.801C494.029 121.083 495.606 125.943 495.606 132.38V139.385C495.606 145.823 494.029 150.682 490.873 153.964C487.718 157.245 482.511 158.886 475.253 158.886H436.061V177.063C436.061 178.451 435.367 179.145 433.978 179.145H423.754C422.303 179.145 421.577 178.451 421.577 177.063V115.719C421.577 113.825 422.524 112.879 424.417 112.879H475.253ZM436.061 146.391H472.318C475.537 146.391 477.809 145.696 479.134 144.308C480.46 142.919 481.122 140.805 481.122 137.965V134.368C481.122 131.528 480.46 129.414 479.134 128.025C477.809 126.637 475.537 125.943 472.318 125.943H437.292C436.471 125.943 436.061 126.321 436.061 127.078V146.391ZM517.38 112.879C518.768 112.879 519.462 113.573 519.462 114.961V139.575H563.766V114.961C563.766 113.573 564.461 112.879 565.849 112.879H576.073C577.524 112.879 578.25 113.573 578.25 114.961V177.063C578.25 178.451 577.524 179.145 576.073 179.145H565.849C564.461 179.145 563.766 178.451 563.766 177.063V151.881H519.462V177.063C519.462 178.451 518.768 179.145 517.38 179.145H507.156C505.704 179.145 504.978 178.451 504.978 177.063V114.961C504.978 113.573 505.704 112.879 507.156 112.879H517.38ZM645.748 112.879C650.544 112.879 654.631 113.336 658.007 114.251C661.383 115.166 664.129 116.618 666.243 118.606C668.357 120.594 669.888 123.166 670.834 126.321C671.781 129.477 672.255 133.327 672.255 137.87V154.153C672.255 158.697 671.781 162.563 670.834 165.75C669.888 168.937 668.357 171.524 666.243 173.512C664.129 175.5 661.383 176.936 658.007 177.82C654.631 178.703 650.544 179.145 645.748 179.145H616.496C611.699 179.145 607.629 178.703 604.284 177.82C600.939 176.936 598.209 175.5 596.095 173.512C593.981 171.524 592.435 168.937 591.457 165.75C590.478 162.563 589.989 158.697 589.989 154.153V137.87C589.989 133.327 590.478 129.477 591.457 126.321C592.435 123.166 593.981 120.594 596.095 118.606C598.209 116.618 600.939 115.166 604.284 114.251C607.629 113.336 611.699 112.879 616.496 112.879H645.748ZM604.473 153.112C604.473 155.573 604.678 157.64 605.089 159.312C605.499 160.985 606.177 162.31 607.124 163.288C608.071 164.267 609.349 164.961 610.958 165.371C612.567 165.781 614.602 165.986 617.064 165.986H645.18C647.641 165.986 649.676 165.781 651.286 165.371C652.895 164.961 654.173 164.267 655.12 163.288C656.067 162.31 656.745 160.985 657.155 159.312C657.565 157.64 657.77 155.573 657.77 153.112V138.912C657.77 136.45 657.565 134.383 657.155 132.711C656.745 131.039 656.067 129.713 655.12 128.735C654.173 127.757 652.895 127.063 651.286 126.652C649.676 126.242 647.641 126.037 645.18 126.037H617.064C614.602 126.037 612.567 126.242 610.958 126.652C609.349 127.063 608.071 127.757 607.124 128.735C606.177 129.713 605.499 131.039 605.089 132.711C604.678 134.383 604.473 136.45 604.473 138.912V153.112ZM752.153 112.879C753.542 112.879 754.235 113.573 754.235 114.961V123.955C754.235 125.343 753.542 126.037 752.153 126.037H699.424C698.603 126.037 698.193 126.479 698.193 127.363V139.858H751.585C753.037 139.858 753.762 140.553 753.762 141.941V149.42C753.762 150.808 753.037 151.502 751.585 151.502H698.193V164.566C698.193 165.513 698.603 165.986 699.424 165.986H752.153C753.542 165.986 754.235 166.681 754.235 168.069V177.063C754.235 178.451 753.542 179.145 752.153 179.145H689.295C687.464 179.145 686.123 178.798 685.271 178.104C684.419 177.41 683.993 176.179 683.993 174.412V117.612C683.993 116.224 684.419 115.087 685.271 114.204C686.123 113.32 687.464 112.879 689.295 112.879H752.153ZM13.3749 225.342C14.1954 225.342 14.842 225.437 15.3156 225.626C15.7888 225.816 16.1834 226.162 16.4986 226.667L38.9346 261.694L60.7081 227.33C61.0237 226.699 61.4179 226.21 61.8915 225.863C62.3647 225.516 63.2642 225.342 64.5893 225.342H75.0976C75.9808 225.342 76.4702 225.626 76.5647 226.194C76.6592 226.762 76.5489 227.299 76.2333 227.804L40.2601 283.183C39.1871 284.95 38.0038 286.386 36.71 287.491C35.4163 288.595 34.0435 289.447 32.5922 290.047C31.1405 290.646 29.6415 291.057 28.0953 291.277C26.5491 291.498 24.9871 291.609 23.4095 291.609H13.9429C12.5543 291.609 11.86 290.914 11.86 289.526V280.249C11.86 278.86 12.5543 278.166 13.9429 278.166H23.1257C25.3975 278.166 27.0382 277.898 28.0481 277.361C29.0579 276.825 29.9099 275.989 30.6042 274.853L31.4561 273.527L0.878935 227.804C0.563345 227.299 0.452622 226.762 0.547488 226.194C0.641977 225.626 1.13144 225.342 2.01471 225.342H13.3749ZM148.275 225.342C151.493 225.342 153.765 225.989 155.091 227.283C156.416 228.576 157.079 230.612 157.079 233.389V289.526C157.079 290.914 156.353 291.609 154.901 291.609H144.583C143.194 291.609 142.5 290.914 142.5 289.526V240.773C142.5 239.511 141.837 238.879 140.512 238.879H100.279C98.9536 238.879 98.2906 239.511 98.2906 240.773V289.526C98.2906 290.914 97.5967 291.609 96.2081 291.609H85.8896C84.4379 291.609 83.7122 290.914 83.7122 289.526V233.389C83.7122 230.612 84.3748 228.576 85.7002 227.283C87.0253 225.989 89.2976 225.342 92.5162 225.342H148.275ZM223.251 225.342C230.509 225.342 235.715 226.983 238.871 230.265C242.026 233.546 243.604 238.406 243.604 244.844V251.849C243.604 258.286 242.026 263.146 238.871 266.427C235.715 269.709 230.509 271.35 223.251 271.35H184.059V289.526C184.059 290.914 183.365 291.609 181.976 291.609H171.752C170.3 291.609 169.575 290.914 169.575 289.526V228.182C169.575 226.289 170.522 225.342 172.415 225.342H223.251ZM184.059 258.854H220.316C223.535 258.854 225.807 258.16 227.132 256.771C228.458 255.383 229.12 253.269 229.12 250.429V246.832C229.12 243.992 228.458 241.877 227.132 240.489C225.807 239.1 223.535 238.406 220.316 238.406H185.29C184.469 238.406 184.059 238.785 184.059 239.542V258.854ZM285.542 225.342C287.94 225.342 289.959 225.831 291.6 226.809C293.241 227.788 294.85 229.697 296.428 232.537L327.763 289.431C328.078 290.063 328.157 290.583 327.999 290.993C327.842 291.404 327.384 291.609 326.627 291.609H314.604C313.531 291.609 312.806 291.199 312.427 290.378L305.705 278.166H261.212L254.68 290.378C254.238 291.199 253.513 291.609 252.503 291.609H240.196C239.376 291.609 238.887 291.404 238.729 290.993C238.571 290.583 238.65 290.063 238.965 289.431L270.016 232.537C271.594 229.697 273.14 227.788 274.655 226.809C276.17 225.831 277.936 225.342 279.956 225.342H285.542ZM267.176 267.185H299.742L284.689 239.447C284.437 239.006 284.09 238.785 283.648 238.785H283.08C282.639 238.785 282.291 239.006 282.039 239.447L267.176 267.185ZM393.177 225.342C399.678 225.342 404.301 226.636 407.046 229.223C409.791 231.811 411.164 235.724 411.164 240.962V245.506C411.164 250.808 409.144 254.815 405.105 257.529C409.46 260.053 411.637 264.124 411.637 269.741V275.231C411.637 277.756 411.353 280.028 410.785 282.047C410.217 284.067 409.286 285.787 407.993 287.207C406.699 288.627 404.979 289.716 402.833 290.473C400.688 291.23 398.037 291.609 394.881 291.609H338.649C336.756 291.609 335.809 290.662 335.809 288.769V228.182C335.809 226.289 336.756 225.342 338.649 225.342H393.177ZM350.293 263.209V277.314C350.293 278.134 350.704 278.545 351.524 278.545H390.337C392.862 278.545 394.66 278.087 395.733 277.172C396.806 276.257 397.343 274.789 397.343 272.77V269.173C397.343 267.216 396.759 265.733 395.591 264.723C394.424 263.714 392.262 263.209 389.107 263.209H350.293ZM350.293 252.89H389.107C392.262 252.89 394.408 252.417 395.544 251.47C396.68 250.523 397.248 249.135 397.248 247.305V244.086C397.248 242.13 396.696 240.694 395.591 239.779C394.487 238.864 392.704 238.406 390.243 238.406H351.524C350.704 238.406 350.293 238.816 350.293 239.637V252.89ZM485.099 225.342C488.254 225.342 490.495 225.989 491.82 227.283C493.145 228.576 493.808 230.612 493.808 233.389V289.526C493.808 290.914 493.114 291.609 491.725 291.609H481.407C480.018 291.609 479.324 290.914 479.324 289.526V240.773C479.324 239.511 478.661 238.879 477.336 238.879H454.995C453.859 238.879 453.149 239.179 452.865 239.779C452.581 240.378 452.376 241.057 452.249 241.814C451.934 244.97 451.571 248.267 451.161 251.707C450.75 255.146 450.261 258.554 449.693 261.931C449.125 265.307 448.51 268.526 447.847 271.587C447.185 274.648 446.443 277.409 445.623 279.87C444.36 283.783 442.593 286.718 440.321 288.674C438.049 290.631 434.799 291.609 430.571 291.609H420.915C419.463 291.609 418.737 290.914 418.737 289.526V280.249C418.737 278.86 419.463 278.166 420.915 278.166H428.11C429.498 278.166 430.807 277.677 432.038 276.699C433.269 275.72 434.389 273.717 435.399 270.688C435.967 268.92 436.487 266.901 436.961 264.629C437.434 262.357 437.892 259.737 438.334 256.771C438.775 253.805 439.233 250.429 439.706 246.642C440.18 242.855 440.7 238.501 441.268 233.578C441.52 231.053 442.215 229.05 443.351 227.567C444.487 226.084 446.57 225.342 449.599 225.342H485.099Z" fill="#2B2A29"/>
</svg>
