<svg width="33" height="32" viewBox="0 0 33 32" fill="none" xmlns="http://www.w3.org/2000/svg">
<g clip-path="url(#clip0_1529_12643)">
<path fill-rule="evenodd" clip-rule="evenodd" d="M12.85 21.7C13.85 22.3 15.05 22.6 16.25 22.6C19.95 22.6 22.85 19.6 22.85 16.1C22.85 14.3 22.25 12.7 20.95 11.4C19.65 10.2 18.05 9.5 16.25 9.5C12.65 9.5 9.64999 12.5 9.64999 16.1C9.64999 17.3 9.95 18.5 10.65 19.6L10.85 19.9L10.15 22.3L12.65 21.6L12.85 21.7ZM18.45 17C18.65 17 19.65 17.5 19.85 17.6C19.8811 17.6156 19.9123 17.6287 19.9431 17.6417C20.1099 17.7121 20.2656 17.7779 20.35 18.2C20.45 18.2 20.45 18.6 20.25 19.1C20.15 19.5 19.35 20 18.95 20C18.8822 20 18.8173 20.0057 18.748 20.0119C18.4082 20.0419 17.962 20.0814 16.55 19.5C14.7975 18.799 13.5825 17.0999 13.2413 16.6228C13.1931 16.5554 13.1624 16.5124 13.15 16.5C13.133 16.466 13.0985 16.4116 13.0531 16.3399C12.8319 15.9906 12.35 15.2297 12.35 14.4C12.35 13.4 12.85 12.9 13.05 12.7C13.25 12.5 13.45 12.5 13.55 12.5H13.95C14.05 12.5 14.25 12.5 14.35 12.8C14.55 13.2 14.95 14.2 14.95 14.3C14.95 14.3333 14.9611 14.3667 14.9722 14.4C14.9945 14.4667 15.0167 14.5333 14.95 14.6C14.9 14.65 14.875 14.7 14.85 14.75C14.825 14.8 14.8 14.85 14.75 14.9L14.45 15.2C14.35 15.3 14.25 15.4 14.35 15.6C14.45 15.8 14.85 16.5 15.45 17C16.1251 17.5907 16.6578 17.8254 16.9278 17.9443C16.9778 17.9663 17.0188 17.9844 17.05 18C17.25 18 17.35 18 17.45 17.9C17.5 17.8 17.625 17.65 17.75 17.5C17.875 17.35 18 17.2 18.05 17.1C18.15 16.9 18.25 16.9 18.45 17Z" fill="white"/>
<path fill-rule="evenodd" clip-rule="evenodd" d="M0.25 16C0.25 7.16344 7.41344 0 16.25 0C25.0866 0 32.25 7.16344 32.25 16C32.25 24.8366 25.0866 32 16.25 32C7.41344 32 0.25 24.8366 0.25 16ZM16.25 8C18.35 8 20.35 8.8 21.85 10.3C23.35 11.8 24.25 13.8 24.25 15.9C24.25 20.3 20.65 23.9 16.25 23.9C14.95 23.9 13.65 23.5 12.45 22.9L8.25 24L9.35001 20C8.65001 18.8 8.25 17.4 8.25 16C8.25 11.6 11.85 8 16.25 8Z" fill="white"/>
</g>
<defs>
<clipPath id="clip0_1529_12643">
<rect width="32" height="32" fill="white" transform="translate(0.25)"/>
</clipPath>
</defs>
</svg>
